<svg width="48" height="48" viewBox="0 0 48 48" fill="none" xmlns="http://www.w3.org/2000/svg">
<path fill-rule="evenodd" clip-rule="evenodd" d="M24 8C15.16 8 8 15.3411 8 24.4047C8 31.6638 12.58 37.795 18.94 39.9687C19.74 40.1122 20.04 39.6201 20.04 39.1894C20.04 38.7998 20.02 37.508 20.02 36.1341C16 36.8928 14.96 35.1293 14.64 34.2065C14.46 33.7349 13.68 32.279 13 31.8893C12.44 31.5818 11.64 30.823 12.98 30.8025C14.24 30.782 15.14 31.9919 15.44 32.484C16.88 34.9652 19.18 34.268 20.1 33.8374C20.24 32.7711 20.66 32.0534 21.12 31.6433C17.56 31.2332 13.84 29.8183 13.84 23.5435C13.84 21.7594 14.46 20.283 15.48 19.1347C15.32 18.7246 14.76 17.0431 15.64 14.7874C15.64 14.7874 16.98 14.3568 20.04 16.4689C21.32 16.0998 22.68 15.9153 24.04 15.9153C25.4 15.9153 26.76 16.0998 28.04 16.4689C31.1 14.3363 32.44 14.7874 32.44 14.7874C33.32 17.0431 32.76 18.7246 32.6 19.1347C33.62 20.283 34.24 21.7389 34.24 23.5435C34.24 29.8388 30.5 31.2332 26.94 31.6433C27.52 32.1559 28.02 33.1402 28.02 34.6781C28.02 36.8723 28 38.6358 28 39.1894C28 39.6201 28.3 40.1327 29.1 39.9687C32.2763 38.8693 35.0363 36.7763 36.9917 33.9843C38.947 31.1923 39.9991 27.8419 40 24.4047C40 15.3411 32.84 8 24 8Z" fill="#747474"/>
<rect x="1.25" y="1.25" width="45.5" height="45.5" rx="4.75" stroke="#747474" stroke-width="2.5"/>
</svg>
