<svg width="48" height="48" viewBox="0 0 48 48" fill="none" xmlns="http://www.w3.org/2000/svg">
<path d="M14.1818 0C6.38678 0 0 6.38678 0 14.1818V33.8182C0 41.6132 6.38678 48 14.1818 48H33.8182C41.6132 48 48 41.6132 48 33.8182V14.1818C48 6.38678 41.6132 0 33.8182 0H14.1818ZM14.1818 2.18182H33.8182C40.4231 2.18182 45.8182 7.57686 45.8182 14.1818V33.8182C45.8182 40.4231 40.4231 45.8182 33.8182 45.8182H14.1818C7.57686 45.8182 2.18182 40.4231 2.18182 33.8182V14.1818C2.18182 7.57686 7.57686 2.18182 14.1818 2.18182V2.18182ZM37.0909 8.72727C35.8909 8.72727 34.9091 9.70909 34.9091 10.9091C34.9091 12.1091 35.8909 13.0909 37.0909 13.0909C38.2909 13.0909 39.2727 12.1091 39.2727 10.9091C39.2727 9.70909 38.2909 8.72727 37.0909 8.72727ZM24 12C17.405 12 12 17.405 12 24C12 30.595 17.405 36 24 36C30.595 36 36 30.595 36 24C36 17.405 30.595 12 24 12ZM24 14.1818C29.405 14.1818 33.8182 18.595 33.8182 24C33.8182 29.405 29.405 33.8182 24 33.8182C18.595 33.8182 14.1818 29.405 14.1818 24C14.1818 18.595 18.595 14.1818 24 14.1818Z" fill="#747474"/>
</svg>
