<svg width="48" height="48" viewBox="0 0 48 48" fill="none" xmlns="http://www.w3.org/2000/svg">
<g clip-path="url(#clip0_227_38)">
<path d="M24.0588 1C17.9432 1 12.0781 3.42321 7.75377 7.73654C3.4294 12.0499 1 17.9 1 24C1 30.1 3.4294 35.9501 7.75377 40.2635C12.0781 44.5768 17.9432 47 24.0588 47C30.1744 47 36.0395 44.5768 40.3639 40.2635C44.6882 35.9501 47.1176 30.1 47.1176 24C47.1176 17.9 44.6882 12.0499 40.3639 7.73654C36.0395 3.42321 30.1744 1 24.0588 1V1Z" stroke="url(#paint0_linear_227_38)" stroke-width="2" stroke-miterlimit="10"/>
<g filter="url(#filter0_d_227_38)">
<path d="M11.1566 15.2H21.3806L23.8286 17.672V23.384L21.3566 25.88H13.9406V32H11.1566V15.2ZM20.1326 23.528L21.0926 22.568V18.512L20.1326 17.552H13.9406V23.528H20.1326ZM25.7497 29.528V27.416H28.4857V28.688L29.3977 29.6H34.6297L35.5897 28.64V25.544L34.6537 24.608H28.2697L25.7977 22.16V17.672L28.2697 15.2H35.6617L38.1337 17.672V19.808H35.3977V18.512L34.4617 17.6H29.4697L28.5337 18.512V21.296L29.4697 22.208H35.8537L38.3257 24.68V29.48L35.8057 32H28.2217L25.7497 29.528Z" fill="white"/>
</g>
</g>
<defs>
<filter id="filter0_d_227_38" x="7.15656" y="15.2" width="35.1691" height="24.8" filterUnits="userSpaceOnUse" color-interpolation-filters="sRGB">
<feFlood flood-opacity="0" result="BackgroundImageFix"/>
<feColorMatrix in="SourceAlpha" type="matrix" values="0 0 0 0 0 0 0 0 0 0 0 0 0 0 0 0 0 0 127 0" result="hardAlpha"/>
<feOffset dy="4"/>
<feGaussianBlur stdDeviation="2"/>
<feComposite in2="hardAlpha" operator="out"/>
<feColorMatrix type="matrix" values="0 0 0 0 1 0 0 0 0 1 0 0 0 0 1 0 0 0 0.4 0"/>
<feBlend mode="normal" in2="BackgroundImageFix" result="effect1_dropShadow_227_38"/>
<feBlend mode="normal" in="SourceGraphic" in2="effect1_dropShadow_227_38" result="shape"/>
</filter>
<linearGradient id="paint0_linear_227_38" x1="24.0588" y1="0.0799999" x2="24.0588" y2="47.92" gradientUnits="userSpaceOnUse">
<stop stop-color="#DB8E22"/>
<stop offset="0.16" stop-color="#FA0401"/>
<stop offset="0.33" stop-color="#B701B0"/>
<stop offset="0.49" stop-color="#1977E7"/>
<stop offset="0.66" stop-color="#08A8FF"/>
<stop offset="0.85" stop-color="#21D06A"/>
<stop offset="1" stop-color="#84AB41"/>
</linearGradient>
<clipPath id="clip0_227_38">
<rect width="48" height="48" fill="white"/>
</clipPath>
</defs>
</svg>
