<svg width="48" height="48" viewBox="0 0 48 48" fill="none" xmlns="http://www.w3.org/2000/svg">
<g clip-path="url(#clip0_227_37)">
<path d="M24.0588 1C17.9432 1 12.0781 3.42321 7.75377 7.73654C3.4294 12.0499 1 17.9 1 24C1 30.1 3.4294 35.9501 7.75377 40.2635C12.0781 44.5768 17.9432 47 24.0588 47C30.1744 47 36.0395 44.5768 40.3639 40.2635C44.6882 35.9501 47.1176 30.1 47.1176 24C47.1176 17.9 44.6882 12.0499 40.3639 7.73654C36.0395 3.42321 30.1744 1 24.0588 1V1Z" stroke="url(#paint0_linear_227_37)" stroke-width="2" stroke-miterlimit="10"/>
<g filter="url(#filter0_d_227_37)">
<path d="M11.1566 16.2H21.3806L23.8286 18.672V24.384L21.3566 26.88H13.9406V33H11.1566V16.2ZM20.1326 24.528L21.0926 23.568V19.512L20.1326 18.552H13.9406V24.528H20.1326ZM25.7497 30.528V28.416H28.4857V29.688L29.3977 30.6H34.6297L35.5897 29.64V26.544L34.6537 25.608H28.2697L25.7977 23.16V18.672L28.2697 16.2H35.6617L38.1337 18.672V20.808H35.3977V19.512L34.4617 18.6H29.4697L28.5337 19.512V22.296L29.4697 23.208H35.8537L38.3257 25.68V30.48L35.8057 33H28.2217L25.7497 30.528Z" fill="black"/>
</g>
</g>
<defs>
<filter id="filter0_d_227_37" x="7.15656" y="16.2" width="35.1691" height="24.8" filterUnits="userSpaceOnUse" color-interpolation-filters="sRGB">
<feFlood flood-opacity="0" result="BackgroundImageFix"/>
<feColorMatrix in="SourceAlpha" type="matrix" values="0 0 0 0 0 0 0 0 0 0 0 0 0 0 0 0 0 0 127 0" result="hardAlpha"/>
<feOffset dy="4"/>
<feGaussianBlur stdDeviation="2"/>
<feComposite in2="hardAlpha" operator="out"/>
<feColorMatrix type="matrix" values="0 0 0 0 0 0 0 0 0 0 0 0 0 0 0 0 0 0 0.25 0"/>
<feBlend mode="normal" in2="BackgroundImageFix" result="effect1_dropShadow_227_37"/>
<feBlend mode="normal" in="SourceGraphic" in2="effect1_dropShadow_227_37" result="shape"/>
</filter>
<linearGradient id="paint0_linear_227_37" x1="24.0588" y1="0.0799999" x2="24.0588" y2="47.92" gradientUnits="userSpaceOnUse">
<stop stop-color="#DB8E22"/>
<stop offset="0.16" stop-color="#FA0401"/>
<stop offset="0.33" stop-color="#B701B0"/>
<stop offset="0.49" stop-color="#1977E7"/>
<stop offset="0.66" stop-color="#08A8FF"/>
<stop offset="0.85" stop-color="#21D06A"/>
<stop offset="1" stop-color="#84AB41"/>
</linearGradient>
<clipPath id="clip0_227_37">
<rect width="48" height="48" fill="white"/>
</clipPath>
</defs>
</svg>
