<svg width="48" height="48" viewBox="0 0 48 48" fill="none" xmlns="http://www.w3.org/2000/svg">
<path d="M10.7589 14.8571H37.2411L27.0625 25.0179C25.3527 26.7232 22.625 26.7232 20.9196 25.0179L10.7589 14.8571Z" fill="#747474"/>
<path d="M29.7009 25.6116L37.2411 33.1429H10.7589L18.2857 25.6161L19.3036 26.6339C21.8795 29.2098 26.0938 29.2143 28.6741 26.6384L29.7009 25.6116Z" fill="#747474"/>
<path d="M38.8571 16.4688V31.5268L31.317 24L38.8571 16.4688Z" fill="#747474"/>
<path d="M9.14286 16.4732L16.6696 24L9.14286 31.5268V16.4732Z" fill="#747474"/>
<path fill-rule="evenodd" clip-rule="evenodd" d="M11.4286 0C5.12946 0 0 5.12946 0 11.4286V36.5714C0 42.8705 5.12946 48 11.4286 48H36.5714C42.8705 48 48 42.8705 48 36.5714V11.4286C48 5.12946 42.8705 0 36.5714 0H11.4286ZM36.5714 2.28571H11.4286C6.36607 2.28571 2.28571 6.36607 2.28571 11.4286V36.5714C2.28571 41.6339 6.36607 45.7143 11.4286 45.7143H36.5714C41.6339 45.7143 45.7143 41.6339 45.7143 36.5714V11.4286C45.7143 6.36607 41.6339 2.28571 36.5714 2.28571Z" fill="#747474"/>
</svg>
