<svg width="48" height="48" viewBox="0 0 48 48" fill="none" xmlns="http://www.w3.org/2000/svg">
<path d="M10.9091 0C4.89673 0 0 4.89673 0 10.9091V37.0909C0 43.1033 4.89673 48 10.9091 48H37.0909C43.1033 48 48 43.1033 48 37.0909V10.9091C48 4.89575 43.1031 0 37.0909 0H10.9091ZM10.9091 2.18182H37.0909C41.9245 2.18182 45.8182 6.07443 45.8182 10.9091V37.0909C45.8182 41.9244 41.9244 45.8182 37.0909 45.8182H10.9091C6.07564 45.8182 2.18182 41.9244 2.18182 37.0909V10.9091C2.18182 6.07564 6.07564 2.18182 10.9091 2.18182ZM30.2109 12C26.2817 12 23.0774 15.2167 23.0774 19.1506C23.0774 19.179 23.0877 19.2053 23.0881 19.2337C18.927 18.6788 15.2451 16.6201 12.7159 13.5107C12.4897 13.2326 12.1414 13.0834 11.7841 13.1115C11.4268 13.1396 11.1061 13.3414 10.9261 13.6513C10.3122 14.7092 9.96307 15.9418 9.96307 17.2457C9.96307 18.4075 10.2854 19.4889 10.7791 20.4631C10.2748 20.5698 9.91401 21.015 9.91406 21.5305V21.6073C9.91406 23.7221 10.9002 25.554 12.3643 26.8658C12.0635 27.1545 11.9535 27.5895 12.081 27.9865C12.6901 29.8862 14.1086 31.3757 15.8885 32.2138C14.4655 32.8815 12.9421 33.3601 11.2607 33.3601C10.8125 33.3601 10.3769 33.3367 9.95028 33.2855C9.44521 33.2238 8.96454 33.5194 8.79176 33.998C8.61897 34.4766 8.79997 35.0111 9.22798 35.2862C12.0684 37.1153 15.4542 38.1818 19.0803 38.1818C24.9399 38.1818 29.5701 35.7146 32.6655 32.1946C35.7608 28.6746 37.3679 24.1325 37.3679 19.8537C37.3679 19.7243 37.3621 19.5996 37.3594 19.4723C38.4224 18.6172 39.4227 17.6738 40.1804 16.5362C40.4342 16.1522 40.4197 15.6502 40.1442 15.2814C39.8686 14.9127 39.3912 14.7566 38.951 14.8913C39.129 14.5452 39.3782 14.243 39.4986 13.8665C39.6371 13.4344 39.4936 12.9616 39.1384 12.6793C38.7831 12.397 38.2902 12.3641 37.9006 12.5966C36.9473 13.1632 35.8779 13.538 34.7685 13.7983C33.5213 12.7328 31.9701 12 30.2109 12ZM30.2109 14.1818C31.6415 14.1818 32.9214 14.7834 33.8246 15.75C34.0821 16.0246 34.4631 16.147 34.8324 16.0739C35.0013 16.0405 35.1367 15.9325 35.3033 15.8928C35.2788 15.9081 35.2641 15.9354 35.2393 15.9503C34.8157 16.2046 34.6158 16.7118 34.7522 17.1868C34.8885 17.6617 35.327 17.9857 35.821 17.9766C35.7442 18.0354 35.699 18.1287 35.6207 18.1854C35.3238 18.3996 35.1542 18.7485 35.169 19.1143C35.1794 19.3603 35.1861 19.6077 35.1861 19.8537C35.1861 23.58 33.753 27.6568 31.0291 30.7543C28.3053 33.8518 24.3359 36 19.0803 36C17.2725 36 15.5723 35.6351 13.9538 35.0838C15.9688 34.6579 17.8759 33.9457 19.4382 32.7166C19.8 32.4313 19.9435 31.9494 19.7968 31.5126C19.6501 31.0758 19.2448 30.7783 18.7841 30.7692C17.2384 30.7411 16.0462 29.8653 15.1577 28.7323C15.4864 28.6897 15.8266 28.6868 16.1399 28.6002C16.6278 28.4665 16.9598 28.0151 16.9421 27.5096C16.9243 27.0041 16.5614 26.577 16.0653 26.478C14.2636 26.1137 12.8558 24.7561 12.3409 23.0007C12.8054 23.113 13.2127 23.3642 13.7067 23.38C14.1928 23.3949 14.6301 23.0862 14.7788 22.6232C14.9276 22.1601 14.7519 21.6545 14.348 21.3835C13.0179 20.4923 12.1449 18.9783 12.1449 17.2457C12.1449 16.8884 12.3364 16.6043 12.407 16.2699C15.5053 19.3441 19.6279 21.385 24.2706 21.62C24.6132 21.6372 24.9439 21.4923 25.1635 21.2287C25.383 20.9652 25.4658 20.6137 25.3871 20.2798C25.3021 19.9195 25.2592 19.5432 25.2592 19.1506C25.2592 16.3928 27.4638 14.1818 30.2109 14.1818Z" fill="#747474"/>
<path d="M30.2109 14.1818C31.6415 14.1818 32.9214 14.7834 33.8246 15.75C34.0821 16.0246 34.4631 16.147 34.8324 16.0739C35.0013 16.0405 35.1367 15.9325 35.3033 15.8928C35.2788 15.9081 35.2641 15.9354 35.2393 15.9503C34.8157 16.2046 34.6158 16.7118 34.7522 17.1868C34.8885 17.6617 35.327 17.9857 35.821 17.9766C35.7442 18.0354 35.699 18.1287 35.6207 18.1854C35.3238 18.3996 35.1542 18.7485 35.169 19.1143C35.1794 19.3603 35.1861 19.6077 35.1861 19.8537C35.1861 23.58 33.753 27.6568 31.0291 30.7543C28.3053 33.8518 24.3359 36 19.0803 36C17.2725 36 15.5723 35.6351 13.9538 35.0838C15.9688 34.6579 17.8759 33.9457 19.4382 32.7166C19.8 32.4313 19.9435 31.9494 19.7968 31.5126C19.6501 31.0758 19.2448 30.7783 18.7841 30.7692C17.2384 30.7411 16.0462 29.8653 15.1577 28.7323C15.4864 28.6897 15.8266 28.6868 16.1399 28.6002C16.6278 28.4665 16.9598 28.0151 16.9421 27.5096C16.9243 27.0041 16.5614 26.577 16.0653 26.478C14.2636 26.1137 12.8558 24.7561 12.3409 23.0007C12.8054 23.113 13.2127 23.3642 13.7067 23.38C14.1928 23.3949 14.6301 23.0862 14.7788 22.6232C14.9276 22.1601 14.7519 21.6545 14.348 21.3835C13.0179 20.4923 12.1449 18.9783 12.1449 17.2457C12.1449 16.8884 12.3364 16.6043 12.407 16.2699C15.5053 19.3441 19.6279 21.385 24.2706 21.62C24.6132 21.6372 24.9439 21.4923 25.1635 21.2287C25.383 20.9652 25.4658 20.6137 25.3871 20.2798C25.3021 19.9195 25.2592 19.5432 25.2592 19.1506C25.2592 16.3928 27.4638 14.1818 30.2109 14.1818Z" fill="#747474"/>
</svg>
